<?xml version="1.0" standalone="no"?><!DOCTYPE svg PUBLIC "-//W3C//DTD SVG 1.1//EN" "http://www.w3.org/Graphics/SVG/1.1/DTD/svg11.dtd"><svg t="1563846223999" class="icon" viewBox="0 0 1024 1024" version="1.1" xmlns="http://www.w3.org/2000/svg" p-id="2117" xmlns:xlink="http://www.w3.org/1999/xlink" width="48" height="48"><defs><style type="text/css"></style></defs><path d="M858.286829 415.34439V155.797854c0-48.577561-40.210732-92.135024-92.110049-92.135025h-92.110048V0h-51.949269v63.637854H248.657171V0H196.732878v63.637854H104.597854C56.045268 63.637854 12.487805 103.848585 12.487805 155.772878v634.755122c0 48.577561 40.210732 92.110049 92.110049 92.110049h341.666341c58.642732 72.029659 145.732683 122.280585 249.556293 122.280585 174.204878 0 314.892488-140.68761 314.892488-316.565854 0-117.235512-60.316098-217.71239-152.426147-272.983414zM101.276098 113.88878h92.085073v33.492293h55.271024v-33.467317h375.18361V147.356098h51.924293v-33.467318h90.411707c21.803707 0 40.210732 18.407024 40.210732 40.160781v92.135024H64.437073V152.401171c0-21.753756 15.060293-38.51239 36.839025-38.512391z m0 710.131513c-21.803707 0-40.210732-18.407024-40.210732-40.210732V296.460488h741.950439v92.110049c-33.492293-11.738537-73.678049-21.778732-112.215415-21.778732-174.179902 0-316.540878 140.68761-316.540878 316.540878 0 51.949268 11.738537 97.155122 33.492293 140.68761H101.251122z m592.871024 122.280585c-145.707707 0-262.94322-118.933854-262.94322-262.968195s118.908878-262.94322 262.94322-262.94322 266.314927 118.908878 266.314927 262.94322S839.854829 946.325854 694.147122 946.325854z" fill="#38cf15" p-id="2118"></path><path d="M736.03122 683.332683v-167.486439h-51.949269v219.410732h214.41561V683.332683z" fill="#38cf15" p-id="2119"></path></svg>